<svg xmlns="http://www.w3.org/2000/svg" width="500" viewBox="80 138 218 75" height="500" version="1.0"><defs><clipPath id="prefix__a"><path d="M132.25 151.59H202v72h-69.75zm0 0"/></clipPath></defs><path d="M94.192 137.78v59.312h25.531v14.829H77.301V137.78zm0 0M122.6 140.108c1.851-1.852 4.066-2.781 6.64-2.781 2.582 0 4.8.93 6.656 2.781 1.864 1.855 2.797 4.074 2.797 6.656 0 2.574-.933 4.793-2.797 6.657-1.855 1.855-4.074 2.78-6.656 2.78-2.574 0-4.789-.925-6.64-2.78-1.856-1.864-2.782-4.083-2.782-6.657 0-2.582.926-4.8 2.782-6.656zm-1.532 25.703v46.11h15.907v-46.11zm0 0M144.34 206.217c-4.313-4.707-6.47-10.472-6.47-17.296 0-6.833 2.157-12.614 6.47-17.344 4.32-4.739 9.804-7.11 16.453-7.11 6.113 0 11.144 1.918 15.093 5.75v-4.406h15.907v46.11h-15.72v-5.22h-.187c-3.949 4.376-8.98 6.563-15.093 6.563-6.649 0-12.133-2.347-16.453-7.047zm13.53-25.125c-2.062 2.043-3.093 4.653-3.093 7.829 0 3.167.984 5.757 2.953 7.765 1.977 2.012 4.586 3.016 7.828 3.016 3.114 0 5.672-1.016 7.672-3.047 2.008-2.04 3.016-4.625 3.016-7.75 0-3.164-1.031-5.77-3.094-7.813-2.062-2.039-4.594-3.062-7.594-3.062-3.054 0-5.617 1.023-7.687 3.062zm0 0M195.571 211.92v-46.109h15.906v4.86h.188c4.133-4.133 8.535-6.204 13.203-6.204 3.351 0 6.5.696 9.437 2.079 2.938 1.375 5.157 3.5 6.657 6.375 4.675-5.633 9.77-8.454 15.28-8.454 4.907 0 9.126 1.383 12.657 4.141 3.54 2.75 5.313 7.063 5.313 12.938v30.375h-15.907v-26.063c0-2.457-.68-4.508-2.03-6.156-1.345-1.645-3.368-2.469-6.063-2.469-2.336 0-4.118.703-5.344 2.11-1.23 1.406-1.902 3.101-2.016 5.078v27.5h-15.906v-26.063c0-2.457-.68-4.508-2.031-6.156-1.344-1.645-3.367-2.469-6.063-2.469-2.46 0-4.304.766-5.531 2.297-1.23 1.523-1.844 3.328-1.844 5.422v26.969zm0 0M287.335 192.686c2.875 0 5.312 1.008 7.312 3.016 2.008 2 3.016 4.445 3.016 7.328 0 2.812-1.008 5.226-3.016 7.234-2 2-4.437 3-7.312 3-2.813 0-5.227-1-7.235-3-2.012-2.008-3.015-4.422-3.015-7.234 0-2.883 1.003-5.328 3.015-7.328 2.008-2.008 4.422-3.016 7.235-3.016zm0 0"/><g clip-path="url(#prefix__a)"><path fill="#e4e1da" d="M202.164 186.938h-10.309c-17.652-3.82-21.578-7.762-25.398-25.438v-9.91h-1.305v10.012c-3.812 17.59-7.754 21.523-25.37 25.335h-7.524v1.301h7.523c17.617 3.813 21.559 7.746 25.371 25.336v9.828h1.305v-9.726c3.82-17.676 7.746-21.617 25.398-25.434h10.31zm0 0"/></g><path d="M139.656 228.061h2.86c.663 0 1.28.11 1.843.328.562.219 1.05.528 1.469.922.414.387.738.852.968 1.39.239.532.36 1.11.36 1.735a4.19 4.19 0 01-.36 1.734c-.23.532-.554.993-.968 1.375a4.756 4.756 0 01-1.469.922 5.055 5.055 0 01-1.844.328h-2.86zm2.844 7.89c.53 0 1.02-.085 1.468-.265a3.501 3.501 0 001.157-.734c.332-.313.586-.68.765-1.11.188-.425.281-.894.281-1.406 0-.52-.093-.992-.28-1.422a3.228 3.228 0 00-.766-1.11 3.565 3.565 0 00-1.157-.734 3.992 3.992 0 00-1.468-.265h-1.938v7.047zm0 0M152.876 228.061h4.5v.844h-3.594v2.937h2.75v.844h-2.75v3.266h3.656v.843h-4.562zm0 0M162.514 228.061h.969l2.375 6.828 2.531-6.828h.906l-3.36 9h-.25zm0 0M174.757 228.061h4.5v.844h-3.594v2.937h2.75v.844h-2.75v3.266h3.656v.843h-4.562zm0 0M185.176 228.061h.907v7.89h3.53v.844h-4.437zm0 0M199.114 236.92a4.26 4.26 0 01-1.687-.343 4.473 4.473 0 01-1.391-.97 4.46 4.46 0 01-.938-1.421 4.413 4.413 0 01-.343-1.75c0-.625.113-1.207.343-1.75.227-.55.54-1.031.938-1.437.395-.407.86-.723 1.39-.954a4.078 4.078 0 011.688-.359c.602 0 1.164.121 1.688.36.53.23.992.546 1.39.953a4.577 4.577 0 011.281 3.187c0 .617-.117 1.195-.343 1.734a4.595 4.595 0 01-.938 1.422 4.52 4.52 0 01-1.39.969 4.026 4.026 0 01-1.688.36zm0-.89c.477 0 .926-.086 1.344-.266a3.367 3.367 0 001.078-.765c.3-.32.535-.704.703-1.141.176-.438.266-.91.266-1.422 0-.52-.09-1-.266-1.437a3.5 3.5 0 00-.703-1.141 3.265 3.265 0 00-1.078-.75 3.25 3.25 0 00-1.344-.281c-.492 0-.945.093-1.36.28-.406.18-.761.43-1.062.75a3.788 3.788 0 00-.703 1.142c-.18.437-.266.918-.266 1.437 0 .512.086.984.266 1.422.176.437.41.82.703 1.14.301.325.656.579 1.063.766.414.18.867.266 1.36.266zm0 0M209.207 228.061h2.078c.437 0 .836.07 1.203.203.375.125.691.309.953.547.27.23.476.508.625.828.144.324.219.68.219 1.063 0 .375-.075.726-.22 1.047a2.503 2.503 0 01-.624.843c-.262.23-.578.414-.953.547a3.7 3.7 0 01-1.203.188h-1.172v3.468h-.906zm2.078 4.422c.632 0 1.14-.16 1.515-.484.383-.332.578-.77.578-1.313 0-.539-.195-.973-.578-1.297-.375-.32-.883-.484-1.515-.484h-1.172v3.578zm0 0M219.952 228.061h4.5v.844h-3.594v2.937h2.75v.844h-2.75v3.266h3.656v.843h-4.562zm0 0M230.371 228.061h2.078a3.7 3.7 0 011.204.188c.375.125.69.308.953.546.27.23.476.5.625.813.144.312.218.656.218 1.031 0 .305-.046.59-.14.86-.094.261-.23.496-.406.703-.168.21-.375.39-.625.547a2.594 2.594 0 01-.797.343l2.5 3.703h-1.094l-2.438-3.593h-1.171v3.593h-.907zm2.078 4.297c.633 0 1.141-.156 1.516-.469.383-.312.578-.734.578-1.265 0-.52-.195-.938-.578-1.25-.375-.313-.883-.47-1.516-.47h-1.171v3.454zm0 0"/></svg>