<svg xmlns="http://www.w3.org/2000/svg" xmlns:xlink="http://www.w3.org/1999/xlink" width="500" zoomAndPan="magnify"
  viewBox="80 138 218 75" height="500" preserveAspectRatio="xMidYMid meet" version="1.0">
  <defs>
    <g />
    <clipPath id="1af1a2fd23">
      <path d="M 132.25 151.589844 L 202 151.589844 L 202 223.589844 L 132.25 223.589844 Z M 132.25 151.589844 "
        clip-rule="nonzero" />
    </clipPath>
  </defs>
  <g fill="#000000" fill-opacity="1">
    <g transform="translate(71.910518, 211.920525)">
      <g>
        <path
          d="M 22.28125 -74.140625 L 22.28125 -14.828125 L 47.8125 -14.828125 L 47.8125 0 L 5.390625 0 L 5.390625 -74.140625 Z M 22.28125 -74.140625 " />
      </g>
    </g>
  </g>
  <g fill="#000000" fill-opacity="1">
    <g transform="translate(115.677648, 211.920525)">
      <g>
        <path
          d="M 6.921875 -71.8125 C 8.773438 -73.664062 10.988281 -74.59375 13.5625 -74.59375 C 16.144531 -74.59375 18.363281 -73.664062 20.21875 -71.8125 C 22.082031 -69.957031 23.015625 -67.738281 23.015625 -65.15625 C 23.015625 -62.582031 22.082031 -60.363281 20.21875 -58.5 C 18.363281 -56.644531 16.144531 -55.71875 13.5625 -55.71875 C 10.988281 -55.71875 8.773438 -56.644531 6.921875 -58.5 C 5.066406 -60.363281 4.140625 -62.582031 4.140625 -65.15625 C 4.140625 -67.738281 5.066406 -69.957031 6.921875 -71.8125 Z M 5.390625 -46.109375 L 5.390625 0 L 21.296875 0 L 21.296875 -46.109375 Z M 5.390625 -46.109375 " />
      </g>
    </g>
  </g>
  <g fill="#000000" fill-opacity="1">
    <g transform="translate(135.808293, 211.920525)">
      <g>
        <path
          d="M 8.53125 -5.703125 C 4.21875 -10.410156 2.0625 -16.175781 2.0625 -23 C 2.0625 -29.832031 4.21875 -35.613281 8.53125 -40.34375 C 12.851562 -45.082031 18.335938 -47.453125 24.984375 -47.453125 C 31.097656 -47.453125 36.128906 -45.535156 40.078125 -41.703125 L 40.078125 -46.109375 L 55.984375 -46.109375 L 55.984375 0 L 40.265625 0 L 40.265625 -5.21875 L 40.078125 -5.21875 C 36.128906 -0.84375 31.097656 1.34375 24.984375 1.34375 C 18.335938 1.34375 12.851562 -1.003906 8.53125 -5.703125 Z M 22.0625 -30.828125 C 20 -28.785156 18.96875 -26.175781 18.96875 -23 C 18.96875 -19.832031 19.953125 -17.242188 21.921875 -15.234375 C 23.898438 -13.222656 26.507812 -12.21875 29.75 -12.21875 C 32.863281 -12.21875 35.421875 -13.234375 37.421875 -15.265625 C 39.429688 -17.304688 40.4375 -19.890625 40.4375 -23.015625 C 40.4375 -26.179688 39.40625 -28.785156 37.34375 -30.828125 C 35.28125 -32.867188 32.75 -33.890625 29.75 -33.890625 C 26.695312 -33.890625 24.132812 -32.867188 22.0625 -30.828125 Z M 22.0625 -30.828125 " />
      </g>
    </g>
  </g>
  <g fill="#000000" fill-opacity="1">
    <g transform="translate(190.180373, 211.920525)">
      <g>
        <path
          d="M 5.390625 0 L 5.390625 -46.109375 L 21.296875 -46.109375 L 21.296875 -41.25 L 21.484375 -41.25 C 25.617188 -45.382812 30.019531 -47.453125 34.6875 -47.453125 C 38.039062 -47.453125 41.1875 -46.757812 44.125 -45.375 C 47.0625 -44 49.28125 -41.875 50.78125 -39 C 55.457031 -44.632812 60.550781 -47.453125 66.0625 -47.453125 C 70.96875 -47.453125 75.1875 -46.070312 78.71875 -43.3125 C 82.257812 -40.5625 84.03125 -36.25 84.03125 -30.375 L 84.03125 0 L 68.125 0 L 68.125 -26.0625 C 68.125 -28.519531 67.445312 -30.570312 66.09375 -32.21875 C 64.75 -33.863281 62.726562 -34.6875 60.03125 -34.6875 C 57.695312 -34.6875 55.914062 -33.984375 54.6875 -32.578125 C 53.457031 -31.171875 52.785156 -29.476562 52.671875 -27.5 L 52.671875 0 L 36.765625 0 L 36.765625 -26.0625 C 36.765625 -28.519531 36.085938 -30.570312 34.734375 -32.21875 C 33.390625 -33.863281 31.367188 -34.6875 28.671875 -34.6875 C 26.210938 -34.6875 24.367188 -33.921875 23.140625 -32.390625 C 21.910156 -30.867188 21.296875 -29.0625 21.296875 -26.96875 L 21.296875 0 Z M 5.390625 0 " />
      </g>
    </g>
  </g>
  <g fill="#000000" fill-opacity="1">
    <g transform="translate(271.693968, 211.920525)">
      <g>
        <path
          d="M 15.640625 -19.234375 C 18.515625 -19.234375 20.953125 -18.226562 22.953125 -16.21875 C 24.960938 -14.21875 25.96875 -11.773438 25.96875 -8.890625 C 25.96875 -6.078125 24.960938 -3.664062 22.953125 -1.65625 C 20.953125 0.34375 18.515625 1.34375 15.640625 1.34375 C 12.828125 1.34375 10.414062 0.34375 8.40625 -1.65625 C 6.394531 -3.664062 5.390625 -6.078125 5.390625 -8.890625 C 5.390625 -11.773438 6.394531 -14.21875 8.40625 -16.21875 C 10.414062 -18.226562 12.828125 -19.234375 15.640625 -19.234375 Z M 15.640625 -19.234375 " />
      </g>
    </g>
  </g>
  <g clip-path="url(#1af1a2fd23)">
    <path fill="#e4e1da"
      d="M 202.164062 186.9375 L 191.855469 186.9375 C 174.203125 183.117188 170.277344 179.175781 166.457031 161.5 L 166.457031 151.589844 L 165.152344 151.589844 L 165.152344 161.601562 C 161.339844 179.191406 157.398438 183.125 139.78125 186.9375 L 132.257812 186.9375 L 132.257812 188.238281 L 139.78125 188.238281 C 157.398438 192.050781 161.339844 195.984375 165.152344 213.574219 L 165.152344 223.402344 L 166.457031 223.402344 L 166.457031 213.675781 C 170.277344 196 174.203125 192.058594 191.855469 188.242188 L 202.164062 188.242188 Z M 202.164062 186.9375 "
      fill-opacity="1" fill-rule="nonzero" />
  </g>
  <g fill="#000000" fill-opacity="1">
    <g transform="translate(138.483993, 236.795406)">
      <g>
        <path
          d="M 1.171875 -8.734375 L 4.03125 -8.734375 C 4.695312 -8.734375 5.3125 -8.625 5.875 -8.40625 C 6.4375 -8.1875 6.925781 -7.878906 7.34375 -7.484375 C 7.757812 -7.097656 8.082031 -6.632812 8.3125 -6.09375 C 8.550781 -5.5625 8.671875 -4.984375 8.671875 -4.359375 C 8.671875 -3.734375 8.550781 -3.15625 8.3125 -2.625 C 8.082031 -2.09375 7.757812 -1.632812 7.34375 -1.25 C 6.925781 -0.863281 6.4375 -0.554688 5.875 -0.328125 C 5.3125 -0.109375 4.695312 0 4.03125 0 L 1.171875 0 Z M 4.015625 -0.84375 C 4.546875 -0.84375 5.035156 -0.929688 5.484375 -1.109375 C 5.929688 -1.285156 6.316406 -1.53125 6.640625 -1.84375 C 6.972656 -2.15625 7.226562 -2.523438 7.40625 -2.953125 C 7.59375 -3.378906 7.6875 -3.847656 7.6875 -4.359375 C 7.6875 -4.878906 7.59375 -5.351562 7.40625 -5.78125 C 7.226562 -6.207031 6.972656 -6.578125 6.640625 -6.890625 C 6.316406 -7.203125 5.929688 -7.445312 5.484375 -7.625 C 5.035156 -7.800781 4.546875 -7.890625 4.015625 -7.890625 L 2.078125 -7.890625 L 2.078125 -0.84375 Z M 4.015625 -0.84375 " />
      </g>
    </g>
  </g>
  <g fill="#000000" fill-opacity="1">
    <g transform="translate(151.703802, 236.795406)">
      <g>
        <path
          d="M 1.171875 -8.734375 L 5.671875 -8.734375 L 5.671875 -7.890625 L 2.078125 -7.890625 L 2.078125 -4.953125 L 4.828125 -4.953125 L 4.828125 -4.109375 L 2.078125 -4.109375 L 2.078125 -0.84375 L 5.734375 -0.84375 L 5.734375 0 L 1.171875 0 Z M 1.171875 -8.734375 " />
      </g>
    </g>
  </g>
  <g fill="#000000" fill-opacity="1">
    <g transform="translate(162.123387, 236.795406)">
      <g>
        <path
          d="M 0.390625 -8.734375 L 1.359375 -8.734375 L 3.734375 -1.90625 L 6.265625 -8.734375 L 7.171875 -8.734375 L 3.8125 0.265625 L 3.5625 0.265625 Z M 0.390625 -8.734375 " />
      </g>
    </g>
  </g>
  <g fill="#000000" fill-opacity="1">
    <g transform="translate(173.584916, 236.795406)">
      <g>
        <path
          d="M 1.171875 -8.734375 L 5.671875 -8.734375 L 5.671875 -7.890625 L 2.078125 -7.890625 L 2.078125 -4.953125 L 4.828125 -4.953125 L 4.828125 -4.109375 L 2.078125 -4.109375 L 2.078125 -0.84375 L 5.734375 -0.84375 L 5.734375 0 L 1.171875 0 Z M 1.171875 -8.734375 " />
      </g>
    </g>
  </g>
  <g fill="#000000" fill-opacity="1">
    <g transform="translate(184.004501, 236.795406)">
      <g>
        <path
          d="M 1.171875 -8.734375 L 2.078125 -8.734375 L 2.078125 -0.84375 L 5.609375 -0.84375 L 5.609375 0 L 1.171875 0 Z M 1.171875 -8.734375 " />
      </g>
    </g>
  </g>
  <g fill="#000000" fill-opacity="1">
    <g transform="translate(194.098483, 236.795406)">
      <g>
        <path
          d="M 5.015625 0.125 C 4.421875 0.125 3.859375 0.0078125 3.328125 -0.21875 C 2.796875 -0.457031 2.332031 -0.78125 1.9375 -1.1875 C 1.539062 -1.59375 1.226562 -2.066406 1 -2.609375 C 0.769531 -3.148438 0.65625 -3.734375 0.65625 -4.359375 C 0.65625 -4.984375 0.769531 -5.566406 1 -6.109375 C 1.226562 -6.660156 1.539062 -7.140625 1.9375 -7.546875 C 2.332031 -7.953125 2.796875 -8.269531 3.328125 -8.5 C 3.859375 -8.738281 4.421875 -8.859375 5.015625 -8.859375 C 5.617188 -8.859375 6.179688 -8.738281 6.703125 -8.5 C 7.234375 -8.269531 7.695312 -7.953125 8.09375 -7.546875 C 8.488281 -7.140625 8.800781 -6.660156 9.03125 -6.109375 C 9.257812 -5.566406 9.375 -4.984375 9.375 -4.359375 C 9.375 -3.742188 9.257812 -3.164062 9.03125 -2.625 C 8.800781 -2.082031 8.488281 -1.609375 8.09375 -1.203125 C 7.695312 -0.796875 7.234375 -0.472656 6.703125 -0.234375 C 6.179688 0.00390625 5.617188 0.125 5.015625 0.125 Z M 5.015625 -0.765625 C 5.492188 -0.765625 5.941406 -0.851562 6.359375 -1.03125 C 6.773438 -1.21875 7.132812 -1.472656 7.4375 -1.796875 C 7.738281 -2.117188 7.972656 -2.5 8.140625 -2.9375 C 8.316406 -3.375 8.40625 -3.847656 8.40625 -4.359375 C 8.40625 -4.878906 8.316406 -5.359375 8.140625 -5.796875 C 7.972656 -6.234375 7.738281 -6.613281 7.4375 -6.9375 C 7.132812 -7.257812 6.773438 -7.507812 6.359375 -7.6875 C 5.941406 -7.875 5.492188 -7.96875 5.015625 -7.96875 C 4.523438 -7.96875 4.070312 -7.875 3.65625 -7.6875 C 3.25 -7.507812 2.894531 -7.257812 2.59375 -6.9375 C 2.300781 -6.613281 2.066406 -6.234375 1.890625 -5.796875 C 1.710938 -5.359375 1.625 -4.878906 1.625 -4.359375 C 1.625 -3.847656 1.710938 -3.375 1.890625 -2.9375 C 2.066406 -2.5 2.300781 -2.117188 2.59375 -1.796875 C 2.894531 -1.472656 3.25 -1.21875 3.65625 -1.03125 C 4.070312 -0.851562 4.523438 -0.765625 5.015625 -0.765625 Z M 5.015625 -0.765625 " />
      </g>
    </g>
  </g>
  <g fill="#000000" fill-opacity="1">
    <g transform="translate(208.034629, 236.795406)">
      <g>
        <path
          d="M 1.171875 -8.734375 L 3.25 -8.734375 C 3.6875 -8.734375 4.085938 -8.664062 4.453125 -8.53125 C 4.828125 -8.40625 5.144531 -8.222656 5.40625 -7.984375 C 5.675781 -7.753906 5.882812 -7.476562 6.03125 -7.15625 C 6.175781 -6.832031 6.25 -6.476562 6.25 -6.09375 C 6.25 -5.71875 6.175781 -5.367188 6.03125 -5.046875 C 5.882812 -4.722656 5.675781 -4.441406 5.40625 -4.203125 C 5.144531 -3.972656 4.828125 -3.789062 4.453125 -3.65625 C 4.085938 -3.53125 3.6875 -3.46875 3.25 -3.46875 L 2.078125 -3.46875 L 2.078125 0 L 1.171875 0 Z M 3.25 -4.3125 C 3.882812 -4.3125 4.390625 -4.472656 4.765625 -4.796875 C 5.148438 -5.128906 5.34375 -5.566406 5.34375 -6.109375 C 5.34375 -6.648438 5.148438 -7.082031 4.765625 -7.40625 C 4.390625 -7.726562 3.882812 -7.890625 3.25 -7.890625 L 2.078125 -7.890625 L 2.078125 -4.3125 Z M 3.25 -4.3125 " />
      </g>
    </g>
  </g>
  <g fill="#000000" fill-opacity="1">
    <g transform="translate(218.779828, 236.795406)">
      <g>
        <path
          d="M 1.171875 -8.734375 L 5.671875 -8.734375 L 5.671875 -7.890625 L 2.078125 -7.890625 L 2.078125 -4.953125 L 4.828125 -4.953125 L 4.828125 -4.109375 L 2.078125 -4.109375 L 2.078125 -0.84375 L 5.734375 -0.84375 L 5.734375 0 L 1.171875 0 Z M 1.171875 -8.734375 " />
      </g>
    </g>
  </g>
  <g fill="#000000" fill-opacity="1">
    <g transform="translate(229.199412, 236.795406)">
      <g>
        <path
          d="M 1.171875 -8.734375 L 3.25 -8.734375 C 3.6875 -8.734375 4.085938 -8.671875 4.453125 -8.546875 C 4.828125 -8.421875 5.144531 -8.238281 5.40625 -8 C 5.675781 -7.769531 5.882812 -7.5 6.03125 -7.1875 C 6.175781 -6.875 6.25 -6.53125 6.25 -6.15625 C 6.25 -5.851562 6.203125 -5.566406 6.109375 -5.296875 C 6.015625 -5.035156 5.878906 -4.800781 5.703125 -4.59375 C 5.535156 -4.382812 5.328125 -4.203125 5.078125 -4.046875 C 4.835938 -3.890625 4.570312 -3.773438 4.28125 -3.703125 L 6.78125 0 L 5.6875 0 L 3.25 -3.59375 L 2.078125 -3.59375 L 2.078125 0 L 1.171875 0 Z M 3.25 -4.4375 C 3.882812 -4.4375 4.390625 -4.59375 4.765625 -4.90625 C 5.148438 -5.21875 5.34375 -5.640625 5.34375 -6.171875 C 5.34375 -6.691406 5.148438 -7.109375 4.765625 -7.421875 C 4.390625 -7.734375 3.882812 -7.890625 3.25 -7.890625 L 2.078125 -7.890625 L 2.078125 -4.4375 Z M 3.25 -4.4375 " />
      </g>
    </g>
  </g>
</svg>